<svg height="512pt" viewBox="0 0 512 512" width="512pt" xmlns="http://www.w3.org/2000/svg"><path d="m436 0h-360c-41.398438 0-76 34.601562-76 76v360c0 41.398438 34.601562 76 76 76h360c41.398438 0 76-34.601562 76-76v-360c0-41.398438-34.601562-76-76-76zm0 0" fill="#fe637c"/><path d="m512 76v360c0 41.398438-34.601562 76-76 76h-180v-512h180c41.398438 0 76 34.601562 76 76zm0 0" fill="#ff1787"/><path d="m376 61h-240c-41.398438 0-75 33.601562-75 75v240c0 41.398438 33.601562 75 75 75h240c41.398438 0 75-33.601562 75-75v-240c0-41.398438-33.601562-75-75-75zm0 0" fill="#edf5ff"/><path d="m451 136v240c0 41.398438-33.601562 75-75 75h-120v-390h120c41.398438 0 75 33.601562 75 75zm0 0" fill="#d7e9ff"/><path d="m421 136v240c0 24.898438-20.097656 45-45 45h-240c-24.902344 0-45-20.101562-45-45v-240c0-24.902344 20.097656-45 45-45h240c24.902344 0 45 20.097656 45 45zm0 0" fill="#fe637c"/><path d="m421 136v240c0 24.898438-20.097656 45-45 45h-120v-330h120c24.902344 0 45 20.097656 45 45zm0 0" fill="#ff1787"/><path d="m256 151c-57.898438 0-105 47.101562-105 105s47.101562 105 105 105 105-47.101562 105-105-47.101562-105-105-105zm0 0" fill="#edf5ff"/><path d="m361 256c0 57.898438-47.101562 105-105 105v-210c57.898438 0 105 47.101562 105 105zm0 0" fill="#d7e9ff"/><path d="m331 256c0 41.398438-33.601562 75-75 75s-75-33.601562-75-75 33.601562-75 75-75 75 33.601562 75 75zm0 0" fill="#fe637c"/><path d="m361 181c-16.539062 0-30-13.460938-30-30s13.460938-30 30-30 30 13.460938 30 30-13.460938 30-30 30zm0 0" fill="#d7e9ff"/><path d="m331 256c0 41.398438-33.601562 75-75 75v-150c41.398438 0 75 33.601562 75 75zm0 0" fill="#ff1787"/></svg>