<?xml version="1.0" standalone="no"?>
<!DOCTYPE svg PUBLIC "-//W3C//DTD SVG 20010904//EN"
 "http://www.w3.org/TR/2001/REC-SVG-20010904/DTD/svg10.dtd">
<svg version="1.0" xmlns="http://www.w3.org/2000/svg"
 width="144.000000pt" height="192.000000pt" viewBox="0 0 144.000000 192.000000"
 preserveAspectRatio="xMidYMid meet">
<metadata>
Created by potrace 1.16, written by Peter Selinger 2001-2019
</metadata>
<g transform="translate(0.000000,192.000000) scale(0.100000,-0.100000)"
fill="#000000" stroke="none">
<path d="M316 1873 c-18 -54 -21 -115 -5 -146 10 -22 10 -22 -10 1 -10 12 -24
22 -29 22 -13 0 -22 -49 -22 -115 0 -50 -3 -55 -39 -84 -44 -35 -73 -96 -92
-191 -7 -36 -20 -76 -29 -90 -56 -84 -52 -219 9 -338 24 -48 93 -98 148 -108
18 -3 33 -10 33 -16 0 -5 35 -45 79 -88 l78 -80 -78 0 c-72 0 -79 -2 -79 -20
0 -19 -7 -20 -140 -20 l-140 0 0 -280 0 -280 228 0 c216 0 230 -1 247 -20 17
-19 31 -20 242 -20 210 0 227 1 250 20 24 19 41 20 249 20 l224 0 0 280 0 280
-140 0 c-133 0 -140 1 -140 20 0 19 -7 20 -91 20 l-91 0 31 35 c17 20 42 58
56 84 23 46 28 50 75 60 113 24 167 73 200 178 35 112 26 204 -29 293 -5 8
-14 44 -21 80 -19 103 -50 159 -119 210 -41 31 -60 52 -61 67 0 18 -10 25 -53
38 -30 8 -88 21 -130 29 -42 7 -86 20 -99 28 -50 32 -117 50 -213 58 -110 8
-157 26 -231 86 -23 19 -44 34 -47 34 -3 0 -12 -21 -21 -47z m73 -67 c26 -31
116 -59 217 -66 78 -6 115 -14 163 -35 63 -29 111 -73 111 -103 0 -11 -10 -5
-30 19 -42 52 -109 77 -248 93 -71 8 -138 22 -166 34 -25 12 -46 19 -46 16 0
-18 36 -67 79 -107 l51 -48 -28 -10 c-15 -6 -53 -9 -84 -7 -32 2 -58 1 -58 -2
0 -12 25 -40 57 -63 31 -23 32 -25 15 -39 -9 -9 -30 -22 -47 -29 -22 -10 -34
-26 -44 -57 -18 -59 -25 -46 -11 22 10 49 14 55 41 61 16 4 29 9 29 12 0 3
-15 21 -34 39 -32 31 -64 99 -53 110 3 3 19 -2 36 -10 38 -20 121 -33 121 -19
0 5 -10 18 -21 29 -47 41 -79 96 -79 136 0 40 10 48 29 24z m283 -443 l37 -36
26 31 c41 49 87 58 158 32 31 -12 73 -36 92 -54 29 -27 35 -41 35 -73 l0 -40
-131 -5 c-92 -4 -134 -10 -139 -19 -11 -16 -64 -16 -84 0 -9 8 -64 15 -143 19
l-128 7 1 40 c1 33 8 46 42 76 47 41 124 71 167 64 16 -3 46 -22 67 -42z m78
-307 c6 -30 18 -60 26 -67 12 -10 10 -15 -16 -30 -51 -31 -41 -36 68 -30 6 1
12 10 12 21 0 18 7 20 63 20 59 0 65 -2 75 -25 35 -76 22 -142 -41 -212 -53
-58 -116 -86 -209 -91 -69 -4 -84 -2 -131 22 -29 14 -64 37 -77 51 -23 24 -23
25 -3 25 12 0 23 -5 25 -11 3 -8 15 -9 36 -4 26 5 32 11 30 27 -5 32 -32 45
-68 31 -66 -25 -95 15 -66 92 27 69 52 95 91 95 25 0 33 -4 29 -14 -8 -20 9
-27 67 -30 l51 -2 -26 23 c-15 13 -34 23 -42 23 -16 0 -19 17 -3 22 5 2 14 24
20 48 14 68 16 70 48 70 28 0 30 -3 41 -54z m-410 -621 c0 -68 -3 -71 -44 -55
-17 6 -24 14 -20 25 5 12 -5 15 -60 15 l-66 0 0 -110 0 -110 55 0 c30 0 58 0
62 0 4 0 7 10 7 23 1 17 -6 23 -27 25 -26 3 -28 7 -25 40 2 20 6 36 11 35 4
-2 30 -3 57 -3 l50 0 0 -100 0 -100 -131 0 c-115 0 -130 2 -125 16 3 9 6 94 6
190 l0 174 125 0 125 0 0 -65z m1010 -31 l0 -95 -35 -15 c-19 -8 -35 -17 -35
-19 0 -3 17 -38 37 -78 21 -39 39 -75 41 -79 2 -5 -16 -8 -40 -8 l-44 0 -34
70 c-19 39 -37 70 -41 70 -32 0 -39 -14 -39 -76 l0 -64 -30 0 -30 0 0 195 0
195 125 0 125 0 0 -96z m-697 -9 c28 -19 55 -35 60 -35 4 0 31 16 59 35 29 19
53 33 54 32 2 -2 4 -70 5 -152 l1 -150 -31 -3 -30 -3 6 100 c4 62 2 101 -3
101 -26 0 -34 -28 -34 -113 l0 -88 -27 3 -26 3 2 86 c2 82 1 87 -23 103 l-26
16 0 -74 c0 -41 5 -78 10 -81 6 -3 10 -17 10 -31 0 -21 -5 -24 -35 -24 l-35 0
0 155 c0 85 2 155 5 155 3 0 29 -16 58 -35z m-110 -113 c15 -76 27 -144 27
-150 0 -7 -11 -12 -25 -12 -20 0 -25 6 -31 35 -6 34 -8 35 -50 35 -37 0 -44
-3 -44 -19 0 -35 -12 -51 -36 -51 -13 0 -24 3 -24 8 0 4 10 56 21 117 16 78
19 110 10 113 -6 2 -11 17 -11 33 l0 29 68 0 68 0 27 -138z m537 64 l0 -73
-75 -28 c-57 -21 -75 -31 -75 -46 0 -16 8 -19 50 -19 38 0 50 4 50 15 0 9 9
15 25 15 23 0 25 -4 25 -45 l0 -45 -100 0 -100 0 0 120 c0 100 -2 120 -15 120
-10 0 -15 10 -15 30 l0 30 115 0 115 0 0 -74z"/>
</g>
</svg>
